<?xml version="1.0" standalone="no"?>
<!DOCTYPE svg PUBLIC "-//W3C//DTD SVG 20010904//EN"
 "http://www.w3.org/TR/2001/REC-SVG-20010904/DTD/svg10.dtd">
<svg version="1.0" xmlns="http://www.w3.org/2000/svg"
 width="422.000000pt" height="502.000000pt" viewBox="0 0 422.000000 502.000000"
 preserveAspectRatio="xMidYMid meet">

<g transform="translate(0.000000,502.000000) scale(0.100000,-0.100000)"
fill="#000000" stroke="none">
<path d="M1166 2815 c-21 -7 -64 -38 -93 -67 -191 -186 -212 -217 -213 -309 0
-108 76 -197 179 -207 l51 -5 0 -39 c0 -108 98 -207 206 -208 l42 0 4 -54 c8
-99 80 -172 181 -185 l52 -6 6 -46 c22 -152 173 -232 314 -165 71 33 275 243
300 309 48 126 -37 267 -171 283 l-49 6 -1 49 c-4 105 -86 189 -193 197 l-59
4 -4 54 c-9 109 -98 187 -212 188 l-61 1 -6 35 c-16 100 -110 181 -209 180
-14 -1 -43 -7 -64 -15z m124 -100 c67 -35 76 -118 22 -197 -49 -71 -166 -175
-213 -189 -37 -11 -46 -11 -78 7 -20 10 -45 35 -55 55 -32 59 -13 102 92 212
124 129 163 148 232 112z m288 -222 c33 -21 55 -78 47 -122 -5 -28 -33 -62
-134 -163 l-126 -128 -48 0 c-62 0 -100 20 -121 64 -20 42 -20 57 -1 103 20
48 199 231 250 254 44 21 93 18 133 -8z m237 -229 c37 -17 65 -66 65 -112 0
-39 -38 -88 -157 -204 -116 -111 -157 -131 -218 -103 -66 32 -89 98 -57 166
26 55 197 233 243 253 44 20 83 20 124 0z m267 -283 c22 -25 28 -41 28 -78 0
-46 -1 -47 -122 -170 -135 -137 -167 -155 -232 -133 -65 21 -93 93 -65 167 11
31 176 204 224 235 23 15 43 18 84 15 46 -3 59 -9 83 -36z"/>
</g>
</svg>
